<?xml version="1.0" encoding="UTF-8" standalone="no"?>
<!DOCTYPE svg PUBLIC "-//W3C//DTD SVG 1.1//EN" "http://www.w3.org/Graphics/SVG/1.1/DTD/svg11.dtd">
<svg width="100%" height="100%" viewBox="0 0 209 209" version="1.1" xmlns="http://www.w3.org/2000/svg" xmlns:xlink="http://www.w3.org/1999/xlink" xml:space="preserve" xmlns:serif="http://www.serif.com/" style="fill-rule:evenodd;clip-rule:evenodd;stroke-linecap:round;stroke-miterlimit:10;">
    <g transform="matrix(1,0,0,1,-445.854,-439.465)">
        <g id="Frames">
        </g>
        <g id="Icons">
            <g transform="matrix(-1,0,0,1,1021.16,-353.65)">
                <rect x="470.979" y="818.24" width="79.205" height="158.17" style="fill:none;stroke:black;stroke-width:5px;"/>
            </g>
            <g transform="matrix(1,0,0,1,510.814,547.234)">
                <path d="M0,-82.643L-41.763,0L41.763,0L0,-82.643ZM0,-71.557L33.634,-5L-33.634,-5L0,-71.557Z" style="fill-rule:nonzero;"/>
            </g>
            <g transform="matrix(-1,0,0,1,1180.08,-353.65)">
                <rect x="550.438" y="818.24" width="79.205" height="158.17" style="fill:none;stroke:black;stroke-width:5px;"/>
            </g>
            <g transform="matrix(1,0,0,1,590.272,547.234)">
                <path d="M0,-82.643L-41.763,0L41.763,0L0,-82.643ZM0,-71.557L33.635,-5L-33.634,-5L0,-71.557Z" style="fill-rule:nonzero;"/>
            </g>
        </g>
    </g>
</svg>
