<?xml version="1.0" encoding="UTF-8" standalone="no"?>
<!DOCTYPE svg PUBLIC "-//W3C//DTD SVG 1.1//EN" "http://www.w3.org/Graphics/SVG/1.1/DTD/svg11.dtd">
<svg width="100%" height="100%" viewBox="0 0 227 209" version="1.1" xmlns="http://www.w3.org/2000/svg" xmlns:xlink="http://www.w3.org/1999/xlink" xml:space="preserve" xmlns:serif="http://www.serif.com/" style="fill-rule:evenodd;clip-rule:evenodd;stroke-linecap:round;stroke-miterlimit:10;">
    <g transform="matrix(1,0,0,1,-75.6089,-802.946)">
        <g id="Frames">
        </g>
        <g id="Icons">
            <g transform="matrix(1,0,0,1,269.853,986.571)">
                <path d="M0,-125.856L-162.368,-125.856L-81.184,0L0,-125.856ZM0,-125.856L0.005,-125.856L0,-125.856ZM-9.175,-120.856L-81.184,-9.224L-153.193,-120.856L-9.175,-120.856Z" style="fill-rule:nonzero;"/>
            </g>
            <g transform="matrix(-0.948443,0.316948,0.316948,0.948443,264.188,965.697)">
                <path d="M78.086,-171.202C103.418,-162.715 124.6,-142.856 133.72,-115.566C149.142,-69.418 124.234,-19.507 78.086,-4.086C31.939,11.335 -17.973,-13.572 -33.395,-59.72C-42.514,-87.01 -37.526,-115.615 -22.387,-137.626" style="fill:none;fill-rule:nonzero;stroke:black;stroke-width:5px;"/>
            </g>
            <g transform="matrix(0,-1,-1,0,135.583,820.071)">
                <path d="M-8.25,-8.25C-12.806,-8.25 -16.5,-4.556 -16.5,0C-16.5,4.556 -12.806,8.25 -8.25,8.25C-3.694,8.25 0,4.556 0,0C0,-4.556 -3.694,-8.25 -8.25,-8.25" style="fill-rule:nonzero;"/>
            </g>
            <g transform="matrix(0,-1,-1,0,242.583,820.071)">
                <path d="M-8.25,-8.25C-12.806,-8.25 -16.5,-4.556 -16.5,0C-16.5,4.556 -12.806,8.25 -8.25,8.25C-3.694,8.25 0,4.556 0,0C0,-4.556 -3.694,-8.25 -8.25,-8.25" style="fill-rule:nonzero;"/>
            </g>
        </g>
    </g>
</svg>
