<?xml version="1.0" encoding="UTF-8" standalone="no"?>
<!DOCTYPE svg PUBLIC "-//W3C//DTD SVG 1.1//EN" "http://www.w3.org/Graphics/SVG/1.1/DTD/svg11.dtd">
<svg width="100%" height="100%" viewBox="0 0 273 192" version="1.1" xmlns="http://www.w3.org/2000/svg" xmlns:xlink="http://www.w3.org/1999/xlink" xml:space="preserve" xmlns:serif="http://www.serif.com/" style="fill-rule:evenodd;clip-rule:evenodd;stroke-linecap:round;stroke-miterlimit:10;">
    <g transform="matrix(1,0,0,1,-770.582,-1164.29)">
        <g id="Frames">
        </g>
        <g id="Icons">
            <g transform="matrix(-1,0,0,1,1813.68,1085.81)">
                <rect x="857.635" y="128.839" width="98.409" height="97.509" style="fill:none;stroke:black;stroke-width:5px;"/>
            </g>
            <g transform="matrix(0,-1,-1,0,835.457,1183.66)">
                <path d="M-8.25,-8.25C-12.806,-8.25 -16.5,-4.556 -16.5,0C-16.5,4.556 -12.806,8.25 -8.25,8.25C-3.694,8.25 0,4.556 0,0C0,-4.556 -3.694,-8.25 -8.25,-8.25" style="fill-rule:nonzero;"/>
            </g>
            <g transform="matrix(0,-1,-1,0,978.457,1183.66)">
                <path d="M-8.25,-8.25C-12.806,-8.25 -16.5,-4.556 -16.5,0C-16.5,4.556 -12.806,8.25 -8.25,8.25C-3.694,8.25 0,4.556 0,0C0,-4.556 -3.694,-8.25 -8.25,-8.25" style="fill-rule:nonzero;"/>
            </g>
            <g transform="matrix(0,-1,-1,0,1008.46,1268.66)">
                <path d="M-8.25,-8.25C-12.806,-8.25 -16.5,-4.556 -16.5,0C-16.5,4.556 -12.806,8.25 -8.25,8.25C-3.694,8.25 0,4.556 0,0C0,-4.556 -3.694,-8.25 -8.25,-8.25" style="fill-rule:nonzero;"/>
            </g>
            <g transform="matrix(0,-1,-1,0,805.457,1268.66)">
                <path d="M-8.25,-8.25C-12.806,-8.25 -16.5,-4.556 -16.5,0C-16.5,4.556 -12.806,8.25 -8.25,8.25C-3.694,8.25 0,4.556 0,0C0,-4.556 -3.694,-8.25 -8.25,-8.25" style="fill-rule:nonzero;"/>
            </g>
            <g transform="matrix(1,0,0,1,831.017,1334.04)">
                <path d="M0,-144.634L132.159,-12.475C144.634,0 164.859,0 177.334,-12.475C189.809,-24.95 189.809,-45.176 177.334,-57.65" style="fill:none;fill-rule:nonzero;stroke:black;stroke-width:5px;"/>
            </g>
            <g transform="matrix(1,0,0,1,982.397,1334.04)">
                <path d="M0,-144.634L-132.159,-12.475C-144.634,0 -164.859,0 -177.334,-12.475C-189.809,-24.95 -189.809,-45.176 -177.334,-57.65" style="fill:none;fill-rule:nonzero;stroke:black;stroke-width:5px;"/>
            </g>
        </g>
    </g>
</svg>
