<?xml version="1.0" encoding="UTF-8"?>
<svg id="Layer_2" data-name="Layer 2" xmlns="http://www.w3.org/2000/svg" viewBox="0 0 263 263">
  <defs>
    <style>
      .cls-1 {
        fill: none;
        stroke-linecap: round;
        stroke-width: 5px;
      }

      .cls-1, .cls-2 {
        stroke: #000;
        stroke-miterlimit: 10;
      }

      .cls-2 {
        fill: #fff;
        opacity: 0;
      }
    </style>
  </defs>
  <g id="Icons">
    <g>
      <rect class="cls-2" x=".5" y=".5" width="262" height="262"/>
      <g>
        <rect class="cls-1" x="52.11" y="67.14" width="79.2" height="158.17"/>
        <path d="m91.94,78.23l33.63,66.56H58.31l33.63-66.56m0-11.09l-41.76,82.64h83.53l-41.76-82.64h0Z"/>
        <rect class="cls-1" x="131.57" y="67.14" width="79.2" height="158.17"/>
        <path d="m171.4,78.23l33.63,66.56h-67.27l33.63-66.56m0-11.09l-41.76,82.64h83.53l-41.76-82.64h0Z"/>
        <path class="cls-1" d="m211.08,64.88c-21.95-17.04-49.51-27.19-79.45-27.19s-57.5,10.15-79.45,27.19"/>
        <circle cx="211" cy="67.62" r="8.25"/>
        <circle cx="52" cy="67.62" r="8.25"/>
      </g>
    </g>
  </g>
</svg>