<?xml version="1.0" encoding="UTF-8"?>
<svg id="Layer_2" data-name="Layer 2" xmlns="http://www.w3.org/2000/svg" viewBox="0 0 263 263">
  <defs>
    <style>
      .cls-1 {
        fill: none;
        stroke-linecap: round;
        stroke-width: 5px;
      }

      .cls-1, .cls-2 {
        stroke: #000;
        stroke-miterlimit: 10;
      }

      .cls-2 {
        fill: #fff;
        opacity: 0;
      }
    </style>
  </defs>
  <g id="Icons">
    <g>
      <rect class="cls-2" x=".5" y=".5" width="262" height="262"/>
      <g>
        <rect class="cls-1" x="51.5" y="67.14" width="79.2" height="158.17"/>
        <path d="m91.34,78.23l33.63,66.56H57.7l33.63-66.56m0-11.09l-41.76,82.64h83.53l-41.76-82.64h0Z"/>
        <rect class="cls-1" x="130.96" y="67.14" width="79.2" height="158.17"/>
        <path d="m170.8,78.23l33.63,66.56h-67.27l33.63-66.56m0-11.09l-41.76,82.64h83.53l-41.76-82.64h0Z"/>
        <path class="cls-1" d="m210.47,64.88c-21.95-17.04-49.51-27.19-79.45-27.19s-57.5,10.15-79.45,27.19"/>
        <circle cx="52.5" cy="67.62" r="8.25"/>
        <circle cx="210.5" cy="67.62" r="8.25"/>
        <line class="cls-1" x1="129.27" y1="149.39" x2="52.69" y2="223.41"/>
        <line class="cls-1" x1="52.69" y1="149.39" x2="129.27" y2="223.41"/>
        <line class="cls-1" x1="208.73" y1="149.39" x2="132.14" y2="223.41"/>
        <line class="cls-1" x1="132.14" y1="149.39" x2="208.73" y2="223.41"/>
      </g>
    </g>
  </g>
</svg>