<?xml version="1.0" encoding="UTF-8" standalone="no"?>
<!DOCTYPE svg PUBLIC "-//W3C//DTD SVG 1.1//EN" "http://www.w3.org/Graphics/SVG/1.1/DTD/svg11.dtd">
<svg width="100%" height="100%" viewBox="0 0 194 194" version="1.1" xmlns="http://www.w3.org/2000/svg" xmlns:xlink="http://www.w3.org/1999/xlink" xml:space="preserve" xmlns:serif="http://www.serif.com/" style="fill-rule:evenodd;clip-rule:evenodd;stroke-linecap:round;stroke-miterlimit:10;">
    <g transform="matrix(1,0,0,1,-453.669,-1160.92)">
        <g id="Frames">
        </g>
        <g id="Icons">
            <g transform="matrix(-1,0,0,1,1100.85,1073.58)">
                <rect x="501.221" y="134.957" width="98.409" height="97.509" style="fill:none;stroke:black;stroke-width:5px;"/>
            </g>
            <g transform="matrix(-0.707107,0.707107,0.707107,0.707107,550.293,1358.66)">
                <path d="M-172.616,-71.5L29.616,-71.5" style="fill:none;fill-rule:nonzero;stroke:black;stroke-width:5px;"/>
            </g>
            <g transform="matrix(0.707107,0.707107,0.707107,-0.707107,550.293,1156.43)">
                <path d="M-29.616,-71.5L172.616,-71.5" style="fill:none;fill-rule:nonzero;stroke:black;stroke-width:5px;"/>
            </g>
            <g transform="matrix(0,-1,-1,0,479.043,1177.54)">
                <path d="M-8.25,-8.25C-12.806,-8.25 -16.5,-4.556 -16.5,0C-16.5,4.556 -12.806,8.25 -8.25,8.25C-3.694,8.25 0,4.556 0,0C0,-4.556 -3.694,-8.25 -8.25,-8.25" style="fill-rule:nonzero;"/>
            </g>
            <g transform="matrix(0,-1,-1,0,622.043,1177.54)">
                <path d="M-8.25,-8.25C-12.806,-8.25 -16.5,-4.556 -16.5,0C-16.5,4.556 -12.806,8.25 -8.25,8.25C-3.694,8.25 0,4.556 0,0C0,-4.556 -3.694,-8.25 -8.25,-8.25" style="fill-rule:nonzero;"/>
            </g>
            <g transform="matrix(0,-1,-1,0,479.043,1320.54)">
                <path d="M-8.25,-8.25C-12.806,-8.25 -16.5,-4.556 -16.5,0C-16.5,4.556 -12.806,8.25 -8.25,8.25C-3.694,8.25 0,4.556 0,0C0,-4.556 -3.694,-8.25 -8.25,-8.25" style="fill-rule:nonzero;"/>
            </g>
            <g transform="matrix(0,-1,-1,0,622.043,1320.54)">
                <path d="M-8.25,-8.25C-12.806,-8.25 -16.5,-4.556 -16.5,0C-16.5,4.556 -12.806,8.25 -8.25,8.25C-3.694,8.25 0,4.556 0,0C0,-4.556 -3.694,-8.25 -8.25,-8.25" style="fill-rule:nonzero;"/>
            </g>
        </g>
    </g>
</svg>
