<?xml version="1.0" encoding="UTF-8"?>
<svg id="Layer_2" data-name="Layer 2" xmlns="http://www.w3.org/2000/svg" viewBox="0 0 263 263">
  <defs>
    <style>
      .cls-1 {
        fill: none;
        stroke-linecap: round;
        stroke-width: 5px;
      }

      .cls-1, .cls-2 {
        stroke: #000;
        stroke-miterlimit: 10;
      }

      .cls-2 {
        fill: #fff;
        opacity: 0;
      }
    </style>
  </defs>
  <g id="Icons">
    <g>
      <rect class="cls-2" x=".5" y=".5" width="262" height="262"/>
      <g>
        <circle cx="31.25" cy="145.71" r="8.25"/>
        <rect class="cls-1" x="95.27" y="98.49" width="72.65" height="71.99"/>
        <circle cx="206.25" cy="59.71" r="8.25"/>
        <circle cx="56.25" cy="59.71" r="8.25"/>
        <circle cx="230.25" cy="145.71" r="8.25"/>
        <path class="cls-1" d="m56.49,59.75l130.97,130.97c12.36,12.36,32.41,12.36,44.77,0h0c12.36-12.36,12.36-32.41,0-44.77"/>
        <line class="cls-1" x1="51.18" y1="124.57" x2="138.14" y2="211.54"/>
        <line class="cls-1" x1="122.42" y1="53.33" x2="209.39" y2="140.3"/>
        <line class="cls-1" x1="209.39" y1="124.57" x2="122.42" y2="211.54"/>
        <line class="cls-1" x1="138.14" y1="53.33" x2="51.18" y2="140.3"/>
        <path class="cls-1" d="m206.51,59.75L75.54,190.72c-12.36,12.36-32.41,12.36-44.77,0h0c-12.36-12.36-12.36-32.41,0-44.77"/>
      </g>
    </g>
  </g>
</svg>